<svg width="191" height="220" viewBox="0 0 191 220" fill="none" xmlns="http://www.w3.org/2000/svg">
<g clip-path="url(#clip0)">
<path d="M95.5991 149.635L91.9881 148.295C62.2219 137.216 42.3563 112.786 34.513 77.6515C31.0202 61.6567 30.0513 45.214 31.6414 28.9197L32.8307 19.5441L48.4746 19.6834V13.2009L96.8313 0L144.952 14.0366V20.4656L160.596 20.6049L161.614 29.9912C162.935 46.3113 161.684 62.7375 157.907 78.6694C149.474 113.654 129.18 137.741 99.2315 148.317L95.5991 149.635Z" fill="#F9A61A"/>
<path d="M95.6527 143.184L94.1097 142.606C66.3686 132.276 47.7995 109.389 40.4383 76.3335C37.0903 61.0217 36.1575 45.2805 37.6739 29.6805L38.1775 25.6624L54.4964 25.8017L54.5607 17.8511L96.8313 6.28967L138.909 18.5476L138.834 26.5088L155.142 26.6481L155.582 30.6663C156.839 46.2904 155.635 62.0151 152.013 77.2657C144.084 110.161 125.13 132.759 97.217 142.627L95.6527 143.184Z" fill="#D57928"/>
<path d="M96.7884 11.0364L134.291 21.9764L134.216 31.0413L151.028 31.1806C151.028 31.1806 160.221 115.561 95.6633 138.33C31.5449 114.511 42.1741 30.2484 42.1741 30.2484L58.9967 30.3877L59.1038 21.2907L96.7884 11.0364Z" fill="#005688"/>
<path d="M63.3899 60.5504L64.9221 59.0181L66.4544 60.5504L64.9221 62.0826L63.3899 60.5504Z" fill="white"/>
<path d="M67.9652 65.1578L69.5082 63.6255L71.0404 65.1578L69.5082 66.6901L67.9652 65.1578Z" fill="white"/>
<path d="M63.3899 65.1578L64.9221 63.6255L66.4544 65.1578L64.9221 66.6901L63.3899 65.1578Z" fill="white"/>
<path d="M67.9652 60.5504L69.5082 59.0181L71.0404 60.5504L69.5082 62.0826L67.9652 60.5504Z" fill="white"/>
<path d="M82.3982 70.451C83.034 70.451 83.6555 70.2625 84.1841 69.9093C84.7127 69.5561 85.1247 69.054 85.368 68.4667C85.6113 67.8793 85.675 67.233 85.551 66.6094C85.4269 65.9859 85.1208 65.4131 84.6712 64.9635C84.2217 64.514 83.6489 64.2078 83.0253 64.0838C82.4018 63.9598 81.7555 64.0234 81.1681 64.2667C80.5807 64.51 80.0787 64.922 79.7255 65.4506C79.3722 65.9793 79.1837 66.6008 79.1837 67.2365C79.1837 68.0891 79.5224 68.9067 80.1252 69.5095C80.7281 70.1124 81.5457 70.451 82.3982 70.451ZM82.3982 66.165C82.6824 66.165 82.9549 66.2779 83.1559 66.4789C83.3568 66.6798 83.4697 66.9523 83.4697 67.2365C83.4697 67.5207 83.3568 67.7932 83.1559 67.9942C82.9549 68.1951 82.6824 68.308 82.3982 68.308C82.114 68.308 81.8415 68.1951 81.6405 67.9942C81.4396 67.7932 81.3267 67.5207 81.3267 67.2365C81.3267 66.9523 81.4396 66.6798 81.6405 66.4789C81.8415 66.2779 82.114 66.165 82.3982 66.165Z" fill="white"/>
<path d="M130.133 97.5813V59.5967H127.99V97.5813C127.99 97.8655 127.878 98.138 127.677 98.339C127.476 98.5399 127.203 98.6528 126.919 98.6528H100.335L96.842 89.9737H98.1278C98.6436 90.0011 99.1596 89.9232 99.6443 89.7447C100.129 89.5661 100.572 89.2908 100.947 88.9354C101.322 88.58 101.62 88.1519 101.824 87.6774C102.028 87.2029 102.133 86.6918 102.133 86.1752C102.133 85.6587 102.028 85.1476 101.824 84.6731C101.62 84.1985 101.322 83.7705 100.947 83.4151C100.572 83.0597 100.129 82.7843 99.6443 82.6058C99.1596 82.4273 98.6436 82.3494 98.1278 82.3768H93.7775L89.1058 70.7725C89.7784 69.5347 90.0921 68.1337 90.0115 66.7273C89.9308 65.3209 89.4591 63.965 88.6494 62.8122C87.8397 61.6595 86.7242 60.7557 85.4285 60.2027C84.1329 59.6498 82.7085 59.4696 81.316 59.6825V53.0927C81.316 52.8086 81.4289 52.536 81.6298 52.3351C81.8308 52.1341 82.1033 52.0212 82.3875 52.0212C82.6717 52.0212 82.9442 52.1341 83.1452 52.3351C83.3461 52.536 83.459 52.8086 83.459 53.0927V57.4323H85.602V53.0927C85.602 52.2288 85.2588 51.4003 84.6479 50.7894C84.0371 50.1786 83.2086 49.8354 82.3446 49.8354C81.4807 49.8354 80.6522 50.1786 80.0414 50.7894C79.4305 51.4003 79.0873 52.2288 79.0873 53.0927V60.3468C77.2719 61.2058 75.8713 62.7495 75.1924 64.6396C74.5135 66.5297 74.6117 68.6118 75.4656 70.4296C75.5299 70.5474 75.5835 70.6653 75.6478 70.7725L71.0189 82.3661H66.6579C65.6854 82.4177 64.7697 82.8405 64.0996 83.5471C63.4295 84.2538 63.0559 85.1906 63.0559 86.1645C63.0559 87.1384 63.4295 88.0752 64.0996 88.7819C64.7697 89.4886 65.6854 89.9113 66.6579 89.963H67.9544L63.6684 100.453C63.312 101.343 63.2606 102.327 63.5223 103.25C63.784 104.172 64.3441 104.983 65.115 105.553L64.2256 107.782L66.2293 108.596L67.1294 106.368C68.0823 106.502 69.0529 106.312 69.8848 105.829C70.7167 105.345 71.3615 104.595 71.7154 103.7L77.3193 89.9844H87.4878L90.9916 98.6635H86.7056C85.5464 98.6635 84.4185 99.0395 83.4912 99.735V92.1488H81.3482V104.085C81.351 105.525 81.9242 106.905 82.9424 107.924C83.9606 108.942 85.3407 109.515 86.7807 109.518H126.93C127.782 109.518 128.6 109.179 129.203 108.576C129.806 107.973 130.144 107.156 130.144 106.303V103.089H128.001V106.303C128.001 106.587 127.888 106.86 127.687 107.061C127.486 107.262 127.214 107.375 126.93 107.375V100.86C127.782 100.86 128.6 100.521 129.203 99.9186C129.806 99.3158 130.144 98.4982 130.144 97.6456L130.133 97.5813ZM98.1278 84.5626C98.3609 84.5245 98.5994 84.5374 98.827 84.6006C99.0545 84.6638 99.2656 84.7757 99.4456 84.9286C99.6256 85.0815 99.7702 85.2717 99.8693 85.4861C99.9685 85.7004 100.02 85.9337 100.02 86.1699C100.02 86.406 99.9685 86.6394 99.8693 86.8537C99.7702 87.068 99.6256 87.2583 99.4456 87.4111C99.2656 87.564 99.0545 87.676 98.827 87.7392C98.5994 87.8024 98.3609 87.8153 98.1278 87.7771H95.9848L94.6776 84.5626H98.1278ZM82.3982 61.7719C83.4731 61.7719 84.5239 62.0908 85.4175 62.6882C86.3111 63.2856 87.0074 64.1346 87.4182 65.1279C87.8291 66.1212 87.936 67.214 87.7255 68.2681C87.5151 69.3222 86.9966 70.2902 86.2358 71.0495C85.4749 71.8088 84.506 72.3254 83.4515 72.5338C82.397 72.7422 81.3043 72.6331 80.3119 72.2203C79.3194 71.8074 78.4717 71.1095 77.8761 70.2147C77.2804 69.3199 76.9636 68.2685 76.9657 67.1936C76.9686 65.7547 77.5422 64.3757 78.5607 63.3592C79.5791 62.3427 80.9593 61.7719 82.3982 61.7719ZM84.4126 82.3661H80.3731L82.3982 77.3515L84.4126 82.3661ZM66.6579 87.8093C66.4249 87.8475 66.1863 87.8345 65.9587 87.7713C65.7312 87.7081 65.5201 87.5962 65.3401 87.4433C65.1601 87.2904 65.0156 87.1002 64.9164 86.8859C64.8173 86.6715 64.7659 86.4382 64.7659 86.202C64.7659 85.9659 64.8173 85.7325 64.9164 85.5182C65.0156 85.3039 65.1601 85.1137 65.3401 84.9608C65.5201 84.8079 65.7312 84.6959 65.9587 84.6327C66.1863 84.5695 66.4249 84.5566 66.6579 84.5948H70.1403L68.8331 87.8093H66.6579ZM69.7545 102.907C69.6476 103.171 69.4897 103.411 69.29 103.614C69.0902 103.816 68.8525 103.978 68.5903 104.089C68.3281 104.2 68.0466 104.258 67.762 104.26C67.4773 104.262 67.195 104.208 66.9311 104.101C66.6673 103.994 66.4271 103.837 66.2243 103.637C66.0215 103.437 65.86 103.199 65.749 102.937C65.6381 102.675 65.5799 102.393 65.5777 102.109C65.5756 101.824 65.6295 101.542 65.7364 101.278L77.2336 72.7226C78.3188 73.7347 79.6799 74.4022 81.1446 74.6406L69.7545 102.907ZM78.1872 87.8093L79.4945 84.5948H85.2913C85.4306 84.9269 86.6842 88.0343 86.5985 87.8093H78.1872ZM86.7592 107.343C85.8953 107.343 85.0668 106.999 84.4559 106.389C83.845 105.778 83.5019 104.949 83.5019 104.085C83.5019 103.221 83.845 102.393 84.4559 101.782C85.0668 101.171 85.8953 100.828 86.7592 100.828H91.881L93.0382 103.721C93.392 104.616 94.0368 105.366 94.8687 105.85C95.7006 106.334 96.6712 106.524 97.6242 106.389L98.0099 107.343H86.7592ZM97.8814 104.128C97.6173 104.239 97.3337 104.296 97.0472 104.296C96.7607 104.295 96.4772 104.238 96.2135 104.126C95.9498 104.014 95.7112 103.85 95.5118 103.644C95.3124 103.439 95.1563 103.195 95.0526 102.928L93.6168 99.36L83.6733 74.7156C85.1334 74.4452 86.4821 73.7522 87.5521 72.7226C97.6456 97.7313 94.6133 90.2416 98.5993 100.11L99.06 101.246C99.1762 101.512 99.2373 101.798 99.2394 102.088C99.2416 102.378 99.1849 102.666 99.0727 102.933C98.9605 103.201 98.7951 103.443 98.5867 103.644C98.3782 103.846 98.131 104.003 97.8599 104.107L97.8814 104.128ZM124.733 103.057H122.59V105.2H124.733V107.343H100.335L99.6172 105.575C100.333 105.039 100.867 104.297 101.148 103.448C101.43 102.6 101.445 101.685 101.192 100.828H124.712L124.733 103.057Z" fill="white"/>
<path d="M126.887 42.2385H86.7378C85.2989 42.2385 83.9187 42.8093 82.9002 43.8258C81.8817 44.8423 81.3081 46.2213 81.3053 47.6602H83.4483C83.4483 46.8077 83.787 45.9901 84.3898 45.3873C84.9926 44.7844 85.8103 44.4458 86.6628 44.4458H126.812C127.096 44.4458 127.369 44.5586 127.569 44.7596C127.77 44.9605 127.883 45.2331 127.883 45.5173V57.4323H130.026V45.4958C130.038 44.6487 129.715 43.8313 129.127 43.2214C128.539 42.6114 127.734 42.2582 126.887 42.2385Z" fill="white"/>
<path d="M104.107 49.6532L102.489 59.3824L100.185 54.775C100.096 54.593 99.9571 54.44 99.7845 54.3338C99.6119 54.2276 99.4127 54.1725 99.2101 54.1749H95.417V56.3179H98.5458L102.039 63.3041C102.101 63.4323 102.187 63.5469 102.294 63.6413C102.4 63.7356 102.524 63.8079 102.659 63.8537C102.793 63.8996 102.936 63.9182 103.078 63.9085C103.22 63.8987 103.358 63.8608 103.485 63.797C103.637 63.7331 103.772 63.6351 103.88 63.5106C103.988 63.3861 104.065 63.2385 104.107 63.0791L106.132 50.9605H116.065V48.8175H105.178C104.931 48.8114 104.689 48.8914 104.493 49.0438C104.298 49.1961 104.161 49.4115 104.107 49.6532Z" fill="white"/>
<path d="M109.207 60.3682L111.147 58.4181L113.097 60.3682L114.629 58.7931L112.679 56.8858L114.629 54.9464L113.097 53.4356L111.147 55.3857L109.207 53.4356L107.675 54.9786L109.614 56.918L107.675 58.7931L109.207 60.3682Z" fill="white"/>
<path d="M99.7566 67.1937H123.63V69.3367H99.7566V67.1937Z" fill="white"/>
<path d="M95.417 67.1937H97.56V69.3367H95.417V67.1937Z" fill="white"/>
<path d="M112.775 71.5332H123.63V73.6762H112.775V71.5332Z" fill="white"/>
<path d="M95.417 71.5332H110.611V73.6762H95.417V71.5332Z" fill="white"/>
<path d="M95.417 75.8728H112.775V78.0158H95.417V75.8728Z" fill="white"/>
<path d="M87.8201 103.003H91.0345V105.146H87.8201V103.003Z" fill="white"/>
<path d="M103.035 103.003H120.394V105.146H103.035V103.003Z" fill="white"/>
<path d="M67.2045 42.2385H74.8014V44.3815H67.2045V42.2385Z" fill="white"/>
<path d="M62.8649 42.2385H65.0079V44.3815H62.8649V42.2385Z" fill="white"/>
<path d="M62.8649 46.5781H72.6262V48.7211H62.8649V46.5781Z" fill="white"/>
<path d="M73.7191 50.9176H75.8621V53.0606H73.7191V50.9176Z" fill="white"/>
<path d="M62.8649 50.9176H71.544V53.0606H62.8649V50.9176Z" fill="white"/>
<g style="mix-blend-mode:multiply" opacity="0.3">
<path d="M157.907 78.7122C161.684 62.7804 162.935 46.3542 161.614 30.0341L160.596 20.6478L144.952 20.5085V14.0795L96.8313 0.0428467L95.5455 149.678L99.1779 148.402C129.18 137.784 149.474 113.697 157.907 78.7122Z" fill="black"/>
</g>
<path d="M190.534 163.682C171.44 162.611 136.252 161.678 95.5134 161.335C54.775 160.993 19.5441 161.335 0.439331 162.053C19.5334 163.125 54.7214 164.057 95.4919 164.411C136.262 164.764 171.429 164.443 190.534 163.682Z" fill="#D57928"/>
<path d="M33.9772 214.653C21.355 214.535 5.91467 214.042 0 213.442C5.92538 212.949 21.3657 212.703 33.9986 212.81L33.9772 214.653Z" fill="#D57928"/>
<path d="M156.117 213.86C168.74 213.968 184.18 214.471 190.094 215.071C184.169 215.564 168.718 215.8 156.096 215.693L156.117 213.86Z" fill="#D57928"/>
<path d="M40.2026 191.755H34.8451V186.537H46.2459V192.966C46.2459 200.638 42.9564 204.324 34.8558 204.324C26.7553 204.324 23.4122 200.284 23.4122 192.73V182.412C23.4122 174.568 27.0875 170.625 34.888 170.625C42.6885 170.625 46.2459 174.279 46.2459 181.222V181.565H40.2026V181.094C40.2026 177.579 38.5311 176.165 34.8451 176.165C30.9449 176.165 29.4876 178.008 29.4876 182.465V192.655C29.4876 197.198 30.6448 198.87 34.9737 198.87C38.6596 198.87 40.2026 197.156 40.2026 193.427V191.755Z" fill="#929292"/>
<path d="M66.8401 195.698H57.293L55.15 203.799H49.1497L58.6646 171.15H65.7686L75.2835 203.799H68.8545L66.8401 195.698ZM58.7074 190.212H65.4686L62.1255 177.022L58.7074 190.212Z" fill="#929292"/>
<path d="M85.8163 203.799H79.8588V171.15H85.8163V203.799Z" fill="#929292"/>
<path d="M98.7493 171.15L109.154 193.255V171.15H114.683V203.799H108.682L98.1922 182.165V203.799H92.6204V171.15H98.7493Z" fill="#929292"/>
<path d="M127.358 203.799H121.401V171.15H127.358V203.799Z" fill="#929292"/>
<path d="M140.12 203.799H134.173V171.15H140.12V203.799Z" fill="#929292"/>
<path d="M153.267 203.799V176.379H145.563V171.15H166.939V176.379H159.225V203.799H153.267Z" fill="#929292"/>
<path d="M42.0991 209.446H44.8422C47.4566 209.446 48.3352 210.678 48.3352 213.239V216.132C48.3352 218.628 47.4352 219.839 44.8207 219.839H42.0991V209.446ZM43.3956 210.592V218.693H44.8422C46.5673 218.693 46.9851 217.878 46.9851 216.196V213.175C46.9851 211.374 46.5673 210.592 44.8422 210.592H43.3956Z" fill="#929292"/>
<path d="M52.9106 219.839H51.6034V209.446H52.8999L52.9106 219.839Z" fill="#929292"/>
<path d="M62.854 214.514V216.496C62.854 218.821 62.0826 220 59.5431 220C57.0037 220 56.1893 218.768 56.1893 216.346V212.992C56.1893 210.474 57.1751 209.285 59.586 209.285C61.9968 209.285 62.8005 210.357 62.8755 212.425V212.521H61.5575V212.392C61.5575 210.999 61.0218 210.464 59.586 210.464C57.968 210.464 57.443 211.235 57.443 212.992V216.303C57.443 218.136 57.8394 218.811 59.586 218.811C61.3325 218.811 61.6004 218.05 61.6004 216.55V215.607H59.5324V214.471L62.854 214.514Z" fill="#929292"/>
<path d="M67.3544 219.839H66.0579V209.446H67.3544V219.839Z" fill="#929292"/>
<path d="M72.7333 219.839V210.635H70.226V209.446H76.5585V210.635H74.0298V219.839H72.7333Z" fill="#929292"/>
<path d="M82.9554 216.925H79.6337L78.8408 219.839H77.5015L80.5552 209.446H82.1303L85.1841 219.839H83.7483L82.9554 216.925ZM79.9552 215.735H82.6768L81.3374 210.828L79.9552 215.735Z" fill="#929292"/>
<path d="M92.9846 219.839H87.8307V209.446H89.1058V218.671H92.9632L92.9846 219.839Z" fill="#929292"/>
<path d="M102.553 219.839V210.635H100.046V209.446H106.368V210.635H103.85V219.839H102.553Z" fill="#929292"/>
<path d="M115.636 209.446V216.218C115.636 218.639 114.918 220 112.422 220C109.925 220 109.207 218.65 109.207 216.218V209.446H110.514V216.303C110.514 217.943 110.846 218.832 112.464 218.832C114.082 218.832 114.425 217.943 114.425 216.303V209.446H115.636Z" fill="#929292"/>
<path d="M120.908 219.839V210.635H118.401V209.446H124.733V210.635H122.204V219.839H120.908Z" fill="#929292"/>
<path d="M133.509 212.928V216.368C133.509 218.779 132.63 220 130.166 220C127.701 220 126.823 218.779 126.823 216.368V212.928C126.823 210.517 127.701 209.285 130.166 209.285C132.63 209.285 133.509 210.517 133.509 212.928ZM128.151 216.389C128.151 217.986 128.515 218.832 130.144 218.832C131.773 218.832 132.137 217.986 132.137 216.389V212.896C132.137 211.321 131.784 210.464 130.144 210.464C128.505 210.464 128.151 211.321 128.151 212.896V216.389Z" fill="#929292"/>
<path d="M136.755 209.446H139.466C141.459 209.446 142.595 210.142 142.595 212.285V212.682C142.595 214.139 142.134 214.825 141.17 215.221L142.927 219.839H141.481L139.927 215.478H138.084V219.829H136.788L136.755 209.446ZM141.288 212.382C141.288 210.914 140.645 210.592 139.434 210.592H138.052V214.375H139.541C140.902 214.375 141.288 213.935 141.288 212.596V212.382Z" fill="#929292"/>
<path d="M145.252 212.017C145.252 210.217 146.324 209.253 148.188 209.253C149.828 209.253 151.135 209.907 151.285 211.91H150.01C150.003 211.689 149.95 211.473 149.853 211.274C149.757 211.075 149.62 210.899 149.452 210.756C149.283 210.614 149.086 210.508 148.874 210.447C148.662 210.385 148.439 210.369 148.22 210.399C147.085 210.399 146.517 210.892 146.517 211.985C146.517 213.078 147.031 213.464 148.37 213.85C150.17 214.353 151.371 215.114 151.371 217C151.371 219.068 150.299 219.968 148.156 219.968C146.013 219.968 145.07 218.811 145.059 217.236H146.324C146.324 218.243 146.977 218.811 148.21 218.811C149.442 218.811 150.074 218.361 150.074 217.011C150.074 215.939 149.517 215.435 147.931 214.964C146.345 214.493 145.252 213.925 145.252 212.017Z" fill="#929292"/>
</g>
<defs>
<clipPath id="clip0">
<rect width="190.534" height="220" fill="white"/>
</clipPath>
</defs>
</svg>
